<svg id="EI_Data_Analyzer_CM" data-name="EI Data Analyzer CM" xmlns="http://www.w3.org/2000/svg" viewBox="0 0 31.19 30.74"><defs><style>.cls-1{font-size:5.98px;font-family:MessinaSans-Black, Messina Sans;font-weight:800;}.cls-1,.cls-2{fill:#fff;}</style></defs><text class="cls-1" transform="translate(19.75 28.6)">CM</text><polygon class="cls-2" points="23.96 10.35 22.85 10.35 22.85 11.08 24.69 11.08 24.69 4.36 22.27 4.36 22.27 5.08 23.96 5.08 23.96 10.35"/><polygon class="cls-2" points="16.34 14.58 17.57 14.58 17.57 13.85 17.07 13.85 17.07 11.98 19.3 11.98 19.3 11.26 16.34 11.26 16.34 14.58"/><path class="cls-2" d="M30.92,16.93v3.89h3.89V16.93Zm3.16,3.16H31.65V17.66h2.43Z" transform="translate(-5.48 -6.24)"/><path class="cls-2" d="M16.87,13.79H21.7V9H16.87Zm.73-4.11H21v3.39H17.6Z" transform="translate(-5.48 -6.24)"/><path class="cls-2" d="M14,18.22H16.8V15.44H14Zm.73-2h1.32V17.5H14.75Z" transform="translate(-5.48 -6.24)"/><path class="cls-2" d="M32.9,9.47V6.24H29.67V9.47H32.9ZM30.4,7h1.78V8.74H30.4Z" transform="translate(-5.48 -6.24)"/><path class="cls-2" d="M17.57,20.55h2.78V17.77H17.57Zm.72-2.05h1.33v1.32H18.29Z" transform="translate(-5.48 -6.24)"/><path class="cls-2" d="M28.25,29.49h3.32V26.17H28.25ZM29,26.9h1.86v1.86H29Z" transform="translate(-5.48 -6.24)"/><polygon class="cls-2" points="23.36 14.42 21.59 14.42 21.59 15.14 22.63 15.14 22.63 18.52 18.89 18.52 18.89 19.25 23.36 19.25 23.36 14.42"/><path class="cls-2" d="M16.69,34.34h2.79V31.56H16.69Zm.73-2.05h1.33v1.32H17.42Z" transform="translate(-5.48 -6.24)"/><path class="cls-2" d="M20.05,30.92h2.78V28.14H20.05Zm.73-2.05H22.1V30.2H20.78Z" transform="translate(-5.48 -6.24)"/><path class="cls-2" d="M13,10.44a8.13,8.13,0,1,1,.74,12.3,1.54,1.54,0,0,1-.44.82L8,28.7a1.5,1.5,0,1,1-2.09-2.15l5.29-5.14a1.48,1.48,0,0,1,.84-.41A8.12,8.12,0,0,1,13,10.44Zm1.44,9.93a5.88,5.88,0,1,0,.12-8.32A5.89,5.89,0,0,0,14.45,20.37Z" transform="translate(-5.48 -6.24)"/></svg>